# xmcd CD database file
#
# Track frame offsets:
#	150
#	24737
#	50565
#	73962
#	94235
#	113507
#	134865
#	162647
#	178275
#	205822
#
# Disc length: 3016 seconds
#
# Revision: 0
# Processed by: cddbd v1.5PL3 Copyright (c) Steve Scherf et al.
# Submitted via: CDex 1.51
#
DISCID=9e0bc60a
DTITLE=Hapa - Collection
DYEAR=2000
DGENRE=Country
TTITLE0=Lei Pikake
TTITLE1=Ku'u Lei, Ku'u Ipo
TTITLE2=Manoa In The Rain
TTITLE3=E O Mai Ku'u Milimili
TTITLE4=Pu'uanahulu
TTITLE5=He'eia
TTITLE6=The Waikiki Beachboy Song
TTITLE7=Ka Uluwehi O Ke Kai
TTITLE8=Pride (In The Name Of Love)
TTITLE9=Ku'u Lei Awapuhi
EXTD=YEAR: 2000
EXTT0=
EXTT1=
EXTT2=
EXTT3=
EXTT4=
EXTT5=
EXTT6=
EXTT7=
EXTT8=
EXTT9=
PLAYORDER=
